# xmcd
#
# Track frame offsets: 
#        150
#        10712
#        19433
#        30021
#        40917
#        50810
#        62351
#        72730
#        85096
#        99409
#        109899
#        119360
#        132112
#        142285
#        152689
#        164576
#        174088
#        187638
#        204718
#        220285
#        230666
#        262500
#        276924
#        290411
#        304068
#        323498
#        340960
#
# Disc length: 4763 seconds
#
# Revision: 2
# Processed by: cddbd v1.5.2PL0 Copyright (c) Steve Scherf et al.
# Submitted via: ExactAudioCopy v0.99pb5
#
DISCID=7d12991b
DTITLE=The Beatles - No.1 Singles
DYEAR=2000
DGENRE=Pop
TTITLE0=Love me do
TTITLE1=From me to you
TTITLE2=She loves you
TTITLE3=I want to hold your hand
TTITLE4=Can't buy me love
TTITLE5=A hard days night
TTITLE6=I feel fine
TTITLE7=Eight days a week
TTITLE8=Ticked to ride
TTITLE9=Help!
TTITLE10=Yesterday
TTITLE11=Day tripper
TTITLE12=We can work it out
TTITLE13=Paperback riter
TTITLE14=Yellow submarine
TTITLE15=Eleanor Rigby
TTITLE16=Penny Lane
TTITLE17=All you need is love
TTITLE18=Hello, godbye
TTITLE19=Lady Madonna
TTITLE20=Hey Jude
TTITLE21=Get back
TTITLE22=The ballad of John and Yoko
TTITLE23=Something
TTITLE24=Come together
TTITLE25=Let it be
TTITLE26=The long and winding road
EXTD=
EXTT0=
EXTT1=
EXTT2=
EXTT3=
EXTT4=
EXTT5=
EXTT6=
EXTT7=
EXTT8=
EXTT9=
EXTT10=
EXTT11=
EXTT12=
EXTT13=
EXTT14=
EXTT15=
EXTT16=
EXTT17=
EXTT18=
EXTT19=
EXTT20=
EXTT21=
EXTT22=
EXTT23=
EXTT24=
EXTT25=
EXTT26=
PLAYORDER=
